<svg width="14" height="14" viewBox="0 0 14 14" fill="none" xmlns="http://www.w3.org/2000/svg">
<path d="M8.66635 13.9994C8.41502 13.9994 8.18302 13.8574 8.06968 13.6308L6.09102 9.67344C5.98235 9.45611 6.00102 9.19611 6.13902 8.99544L9.33302 4.66611L5.00302 7.85944C4.80235 7.99811 4.54235 8.01544 4.32502 7.90744L0.368352 5.92944C0.131019 5.81011 -0.0136475 5.56144 0.00101915 5.29611C0.0150191 5.03077 0.186352 4.79877 0.435686 4.70744L13.1024 0.0407725C13.3457 -0.0478942 13.6197 0.0101057 13.8044 0.194772C13.9884 0.378106 14.0484 0.652772 13.9584 0.896772L9.29168 13.5634C9.19968 13.8128 8.96835 13.9841 8.70302 13.9981C8.69102 13.9988 8.67835 13.9994 8.66635 13.9994Z" fill="white"/>
</svg>
